<svg width="32" height="22" viewBox="0 0 32 22" fill="none" xmlns="http://www.w3.org/2000/svg">
<path fill-rule="evenodd" clip-rule="evenodd" d="M0.384328 12.039C0.255839 12.1811 0.145705 12.3684 0.0686119 12.6139C0.0759542 12.6268 0.0832964 12.6398 0.0869675 12.6398C0.262075 12.4728 0.436996 12.3051 0.611953 12.1373C1.53372 11.2532 2.4565 10.3682 3.413 9.59727C4.34546 8.84796 5.2816 8.11156 6.22875 7.42038C6.75377 7.03546 7.29422 6.72111 7.83312 6.40766C7.88205 6.3792 7.93098 6.35074 7.97987 6.32224C8.53054 5.99926 9.08855 5.73442 9.67593 5.73442C9.78606 5.73442 9.87417 5.81839 9.90721 5.97988C9.94025 6.14137 9.91455 6.31578 9.83012 6.43852C9.76307 6.5338 9.69739 6.63147 9.63179 6.72902C9.5106 6.90922 9.38971 7.08898 9.26109 7.25243C9.03007 7.54834 8.79747 7.8401 8.56512 8.13156C8.29534 8.46997 8.02588 8.80797 7.7596 9.15156C7.02171 10.1076 6.26179 11.0119 5.46883 11.8323C5.03972 12.2771 4.61308 12.7241 4.18676 13.1707C3.87632 13.4959 3.56606 13.821 3.25514 14.1448C3.11564 14.2934 3.07526 14.6035 3.15969 14.836C3.25147 15.0815 3.39464 15.1525 3.6039 15.0298C3.79162 14.9233 3.97933 14.8035 4.16499 14.6851C4.20444 14.66 4.24381 14.6348 4.28306 14.6099C4.33949 14.5743 4.39603 14.5389 4.4526 14.5036C4.87802 14.2375 5.30479 13.9706 5.70011 13.5829C6.05924 13.2299 6.41336 12.8614 6.76755 12.4929C7.46331 11.769 8.1593 11.0449 8.89398 10.437C9.18767 10.198 9.47769 9.93963 9.76404 9.67479C10.407 9.08214 11.069 8.56006 11.7308 8.03815C11.9418 7.87173 12.1528 7.70532 12.3632 7.53665C13.8683 6.32224 15.3919 5.17243 16.9447 4.14535C17.0542 4.07264 17.1636 3.99965 17.273 3.92667C17.9119 3.50041 18.5505 3.07438 19.2025 2.70486C19.2245 2.69245 19.2464 2.68002 19.2684 2.6676C19.7381 2.40203 20.2056 2.13767 20.6966 2.0266C20.8435 1.9943 20.8728 2.03306 20.8765 2.27852C20.8802 2.54982 20.8068 2.73715 20.6856 2.88573C20.35 3.29915 19.9909 3.64883 19.6327 3.99761C19.5208 4.1066 19.4089 4.21549 19.2979 4.32622C19.188 4.43605 19.0778 4.54588 18.9677 4.6558C18.2613 5.36038 17.5516 6.06824 16.853 6.80026C16.049 7.63355 15.245 8.4733 14.4521 9.34535C14.2489 9.56928 14.0523 9.81044 13.8557 10.0516C13.7574 10.1722 13.6591 10.2928 13.56 10.4112C13.3581 10.6502 13.2443 10.9667 13.1929 11.3737C13.1708 11.5545 13.2663 11.7419 13.3727 11.7742C13.4937 11.8108 13.606 11.7548 13.7179 11.6991C13.8234 11.6465 13.9287 11.5941 14.0409 11.6191C14.0449 11.6226 14.0499 11.6129 14.0555 11.6022C14.0602 11.5931 14.0652 11.5833 14.0703 11.5804C14.113 11.5458 14.1553 11.5062 14.1978 11.4665C14.2903 11.3798 14.3833 11.2928 14.4814 11.2574C14.6281 11.2026 14.756 11.0863 14.8838 10.97C14.967 10.8943 15.0502 10.8186 15.1386 10.76C15.3148 10.643 15.491 10.4783 15.6617 10.3187C15.6795 10.3021 15.6973 10.2855 15.7149 10.2691C15.7652 10.221 15.8172 10.1759 15.869 10.1311C15.9493 10.0614 16.0289 9.99239 16.1004 9.91379C16.2179 9.7846 16.35 9.67479 16.4675 9.62957C16.5471 9.59606 16.6121 9.52378 16.6766 9.45199C16.7488 9.37154 16.8205 9.29173 16.9117 9.26783C17.0035 9.24199 17.121 9.13218 17.2054 9.02882C17.2583 8.96335 17.3153 8.94016 17.3721 8.91708C17.4218 8.8969 17.4712 8.8768 17.5174 8.82858C17.6248 8.71524 17.7439 8.63298 17.8619 8.55149C17.9053 8.52152 17.9486 8.49165 17.991 8.46038C18.1122 8.36994 18.237 8.27305 18.3545 8.17616C18.5123 8.04696 18.6812 7.91777 18.8464 7.8338C19.0024 7.75787 19.1524 7.65554 19.2991 7.55545C19.3147 7.54484 19.3302 7.53426 19.3457 7.52373L19.3457 7.52372C19.4007 7.48497 19.4558 7.44622 19.5145 7.42684C19.5664 7.40746 19.6177 7.42961 19.6685 7.45158C19.7364 7.48089 19.8035 7.5099 19.8706 7.43976C19.9489 7.36329 20.0294 7.37936 20.1122 7.39588C20.1343 7.40029 20.1566 7.40474 20.179 7.40746C20.2194 7.40746 20.0285 7.82088 19.9991 7.85317C19.889 7.97591 19.7862 8.11802 19.6834 8.26013C19.4521 8.57665 19.2062 8.86734 18.9528 9.13218C18.5564 9.5456 18.1415 9.90733 17.723 10.2497C17.5004 10.4302 17.3063 10.6723 17.1107 10.9164C16.9773 11.0829 16.8432 11.2502 16.6988 11.3995C16.6561 11.4424 16.6171 11.4945 16.5782 11.5465C16.5 11.651 16.4224 11.7547 16.317 11.7806C16.3065 11.7806 16.296 11.7971 16.2855 11.8136C16.2813 11.8202 16.2771 11.8268 16.2729 11.8323C16.1261 12.0648 15.9829 12.3038 15.8398 12.5428L15.8397 12.5429C15.6635 12.84 15.6048 13.2147 15.6268 13.6345C15.6415 13.9317 15.8104 14.1707 15.9205 14.035C16.0143 13.9158 16.1155 13.8259 16.2176 13.7352C16.2593 13.6982 16.3011 13.661 16.3427 13.6216C16.3634 13.6024 16.384 13.5832 16.4047 13.564C16.5712 13.4096 16.737 13.2557 16.897 13.0661C16.9872 12.9603 17.0893 12.8666 17.1917 12.7726C17.2394 12.7288 17.2872 12.6849 17.3339 12.6398C17.6595 12.317 17.9762 11.9685 18.2929 11.6198C18.7369 11.1312 19.1812 10.6423 19.6504 10.2239C19.714 10.1657 19.7772 10.1062 19.8404 10.0466C19.9669 9.92744 20.0933 9.80829 20.2231 9.70063C20.2445 9.68178 20.2686 9.66632 20.2929 9.65074C20.3436 9.61826 20.3952 9.58523 20.425 9.51976C20.4882 9.37547 20.5754 9.32853 20.6626 9.28155C20.7121 9.25491 20.7616 9.22826 20.8068 9.18386C20.9446 9.04781 21.0886 8.93344 21.2302 8.82088C21.2433 8.81052 21.2563 8.80017 21.2693 8.78982C21.3491 8.7252 21.4248 8.64715 21.5011 8.5684C21.6003 8.46609 21.7006 8.36262 21.8126 8.28597C21.9769 8.1759 22.1338 8.03469 22.2906 7.89356C22.4283 7.76964 22.5659 7.64579 22.7084 7.54311C22.8064 7.4732 22.9049 7.40665 23.0033 7.34012C23.1778 7.22225 23.3521 7.10447 23.5234 6.96821C23.5434 6.95058 23.5628 6.92643 23.5822 6.90222C23.6268 6.84658 23.6716 6.79067 23.7253 6.81318C23.8142 6.84849 23.8807 6.76166 23.937 6.68808C23.9528 6.66745 23.9678 6.64787 23.9823 6.63231C24.067 6.53711 24.1577 6.47639 24.2477 6.41615C24.2981 6.38239 24.3483 6.34877 24.3971 6.30932C24.4537 6.26298 24.5123 6.22079 24.5708 6.17859C24.6755 6.10313 24.7802 6.02762 24.8744 5.92821C24.9649 5.83066 25.0629 5.77075 25.1613 5.71059C25.2584 5.65125 25.3559 5.59165 25.4471 5.49541C25.5107 5.42906 25.597 5.39465 25.6847 5.35972C25.7336 5.34024 25.7829 5.3206 25.8288 5.29516C25.8565 5.28165 25.8816 5.26022 25.9065 5.23891C25.9412 5.2093 25.9755 5.17994 26.0161 5.17243C26.1813 5.13367 26.3355 5.04324 26.4823 4.90759C26.6108 4.78485 26.7136 4.81715 26.798 5.03032C26.8311 5.10784 26.8384 5.18535 26.7907 5.27578C26.6769 5.48895 26.5594 5.67628 26.4162 5.83131C26.3645 5.88708 26.3105 5.93484 26.2574 5.98188C26.1935 6.03836 26.1309 6.09379 26.0748 6.16075C26.0013 6.24702 25.9219 6.31566 25.8426 6.38418C25.7557 6.45932 25.669 6.53433 25.5902 6.63231C25.5364 6.69644 25.4769 6.73459 25.4174 6.77268C25.3511 6.81516 25.2848 6.85758 25.2268 6.93591C25.1429 7.05275 25.0424 7.1169 24.9415 7.18131C24.8304 7.25222 24.7188 7.32343 24.6284 7.4656C24.6256 7.47554 24.6162 7.474 24.6087 7.47277C24.6065 7.4724 24.6044 7.47206 24.6027 7.47206C24.5338 7.48684 24.4772 7.55304 24.4206 7.61926C24.3536 7.69772 24.2865 7.77621 24.1989 7.7692C24.1964 7.7692 24.194 7.77494 24.1915 7.78068C24.1903 7.78355 24.1891 7.78642 24.1879 7.78858C24.0826 7.93677 23.966 8.04844 23.8502 8.1593C23.8045 8.20307 23.759 8.24671 23.7143 8.29243C23.6392 8.36948 23.5608 8.43598 23.4825 8.50242C23.377 8.59193 23.2716 8.68134 23.1746 8.79628C23.0421 8.95949 22.8962 9.0823 22.7521 9.2036C22.6966 9.25033 22.6414 9.29684 22.5873 9.34535C22.4074 9.50684 22.2238 9.68125 22.066 9.88149C21.9893 9.97836 21.9063 10.053 21.8237 10.1272C21.7522 10.1916 21.6809 10.2557 21.6144 10.3337C21.4995 10.4698 21.3727 10.5769 21.2463 10.6837C21.1748 10.7441 21.1034 10.8044 21.0344 10.8698C20.7619 11.1292 20.4976 11.4148 20.2332 11.7005C20.063 11.8845 19.8927 12.0686 19.7201 12.2457C19.5439 12.4266 19.4741 12.685 19.4521 13.0144C19.4405 13.2113 19.4695 13.3992 19.4985 13.5876C19.5248 13.7577 19.5511 13.9283 19.5476 14.1061C19.5446 14.2281 19.5861 14.2325 19.6315 14.2373C19.6414 14.2384 19.6515 14.2394 19.6614 14.2417C19.8045 14.2805 19.9184 14.1836 20.0432 14.0609C20.0643 14.04 20.0854 14.019 20.1065 13.998C20.2948 13.8108 20.4846 13.6222 20.6893 13.5118C20.8068 13.4485 20.9105 13.3438 21.0148 13.2387C21.1125 13.1402 21.2106 13.0413 21.3207 12.9757C21.427 12.9117 21.5397 12.8064 21.6507 12.7028C21.6853 12.6704 21.7198 12.6382 21.7539 12.6075C22.0666 12.3301 22.3902 12.0847 22.7132 11.8398C22.8491 11.7368 22.9848 11.6339 23.1196 11.5287C23.0572 11.7289 22.9837 11.9034 22.8956 12.0519C22.7572 12.2907 22.6146 12.5257 22.4725 12.7599C22.4262 12.8362 22.38 12.9124 22.3339 12.9886C22.2862 13.0661 22.2642 13.1501 22.2715 13.2663C22.2865 13.4633 22.2767 13.6602 22.2669 13.8588C22.2574 14.0511 22.2479 14.245 22.2605 14.442C22.2715 14.6035 22.2862 14.7198 22.3523 14.7843C22.4184 14.8554 22.5102 14.8683 22.5762 14.7973C22.7011 14.6745 22.8332 14.6035 22.969 14.5776C23.1112 14.5513 23.2382 14.4623 23.3648 14.3735C23.4246 14.3317 23.4842 14.2898 23.5454 14.2547C23.6679 14.1844 23.7904 14.1124 23.9131 14.0402C24.1177 13.9199 24.3227 13.7993 24.5293 13.6862C24.5673 13.6665 24.6026 13.6325 24.6377 13.5986C24.6602 13.5769 24.6825 13.5553 24.7055 13.5376C24.7849 13.4818 24.8651 13.4319 24.9449 13.3822C25.0313 13.3285 25.1172 13.2751 25.2011 13.2147C25.2272 13.1959 25.2518 13.1663 25.2768 13.1361C25.3292 13.073 25.3835 13.0076 25.4581 13.0338C25.5315 13.0596 25.5976 13.0467 25.6563 12.9046C25.6857 12.8271 25.7628 12.7883 25.8435 12.7883C25.9757 12.7948 26.1042 12.7819 26.2363 12.7044C26.4878 12.5544 26.7454 12.437 27.0035 12.3195C27.19 12.2345 27.3768 12.1495 27.5616 12.0519C27.6322 12.0137 27.7053 11.9931 27.7784 11.9726C27.9028 11.9376 28.0269 11.9027 28.138 11.7806C28.1461 11.7711 28.1541 11.7595 28.1622 11.7477C28.1871 11.7115 28.214 11.6724 28.2555 11.6773C28.5012 11.6974 28.7381 11.6079 28.9747 11.5185C29.0421 11.4931 29.1094 11.4676 29.1769 11.4447C29.2464 11.4217 29.3164 11.4076 29.3866 11.3936C29.5131 11.3683 29.6405 11.3427 29.768 11.2639C29.8889 11.1879 30.0323 11.2112 30.1736 11.2341C30.2125 11.2405 30.2512 11.2468 30.2893 11.2509C30.3884 11.2639 30.5132 11.5804 30.4728 11.6966C30.4531 11.7537 30.4334 11.811 30.4138 11.8683C30.2912 12.2265 30.168 12.5863 30.0066 12.8981C29.7276 13.4343 29.4302 13.9381 29.1108 14.4032C29.0786 14.4515 29.0414 14.4898 29.0048 14.5274C28.9581 14.5754 28.9125 14.6223 28.8795 14.6875C28.718 15.004 28.5418 15.3011 28.3509 15.5595C28.2958 15.6338 28.2408 15.7097 28.1857 15.7856C28.1306 15.8615 28.0756 15.9374 28.0205 16.0117C27.9719 16.0778 27.9239 16.1462 27.8759 16.2147C27.7645 16.3738 27.6529 16.5332 27.5322 16.6641C27.4628 16.7409 27.4052 16.8346 27.3478 16.928C27.2989 17.0075 27.2502 17.0867 27.1945 17.155C25.95 18.6924 24.7055 20.2363 23.4646 21.7801C23.4542 21.794 23.4431 21.8067 23.4319 21.8195C23.3963 21.8604 23.3603 21.9016 23.3435 21.9804C23.4316 22.032 23.4977 21.9739 23.5674 21.8964C23.922 21.5117 24.2771 21.128 24.6323 20.7441C25.2076 20.1224 25.7833 19.5003 26.3575 18.8733C26.4965 18.7209 26.6373 18.5724 26.7783 18.4237C27.1215 18.0618 27.4655 17.699 27.7856 17.2778C27.8494 17.1935 27.9176 17.1182 27.9855 17.0432C28.0581 16.9631 28.1303 16.8834 28.1967 16.7933C28.2303 16.7469 28.2639 16.7001 28.2974 16.6532C28.4506 16.4391 28.6044 16.2242 28.7731 16.044C28.8064 16.0082 28.8406 15.9736 28.8749 15.939C28.9769 15.836 29.0798 15.732 29.1622 15.5918C29.2942 15.3735 29.4399 15.1886 29.5851 15.0043C29.7106 14.8451 29.8358 14.6862 29.9515 14.5066C29.9931 14.4432 30.0394 14.3927 30.0856 14.3422C30.1619 14.259 30.2381 14.1758 30.2929 14.035C30.3317 13.9327 30.3869 13.8526 30.4429 13.7713C30.4824 13.714 30.5224 13.6561 30.5572 13.5893C30.6564 13.4084 30.7702 13.2276 30.8876 13.0596C31.0125 12.8788 31.1189 12.6527 31.2144 12.4201C31.241 12.3539 31.2769 12.3205 31.3125 12.2875C31.3359 12.2658 31.3592 12.2442 31.3796 12.2134C31.4371 12.1249 31.4656 12.0101 31.4934 11.8977C31.5225 11.7805 31.5509 11.666 31.6109 11.5868C31.6817 11.4972 31.7165 11.3699 31.7515 11.2419C31.7745 11.1578 31.7976 11.0733 31.8311 10.999C31.9083 10.8266 31.9423 10.616 31.9758 10.4085C31.9837 10.3595 31.9916 10.3107 32 10.2626V9.97193C31.9944 9.96094 31.9892 9.95014 31.9841 9.93962C31.9594 9.8883 31.938 9.8437 31.8862 9.8169C31.2423 9.48708 30.4315 9.70048 29.7225 9.88709C29.5706 9.92708 29.4233 9.96585 29.2834 9.99777C28.7731 10.114 28.2628 10.2691 27.7562 10.4499C27.6441 10.4901 27.5113 10.5237 27.3703 10.5593C26.9897 10.6554 26.5496 10.7667 26.2951 11.0636C26.1845 11.191 26.0628 11.2428 25.9416 11.2944C25.8416 11.337 25.7419 11.3794 25.649 11.4641C25.5144 11.5921 25.3367 11.606 25.1728 11.6188L25.168 11.6191C25.0249 11.6321 24.878 11.5352 24.878 11.3801C24.878 11.2407 24.8689 11.1023 24.8598 10.9646C24.8466 10.7642 24.8334 10.5651 24.8487 10.366C24.889 9.86858 24.8707 9.82982 24.588 9.82982C24.5342 9.82982 24.4812 9.85387 24.4277 9.87813C24.3245 9.92499 24.2195 9.97262 24.1034 9.8492C23.9859 9.72646 23.9382 9.63603 24.0337 9.43578C24.1618 9.1586 24.3366 8.99076 24.5113 8.82292C24.5769 8.75998 24.6424 8.69703 24.7055 8.62833C24.7449 8.58437 24.7838 8.53776 24.8227 8.49105C24.9327 8.35926 25.0434 8.22662 25.168 8.15032C25.2216 8.1169 25.2678 8.05635 25.3132 7.99688C25.3643 7.92986 25.4144 7.86421 25.4727 7.84026C25.6053 7.7829 25.7224 7.67349 25.8393 7.56427C25.9199 7.48897 26.0004 7.41377 26.0858 7.35578C26.1556 7.3086 26.2238 7.25452 26.292 7.20047C26.4106 7.10653 26.529 7.01269 26.6549 6.95529C26.6569 6.95469 26.6589 6.95415 26.6609 6.95361C26.6802 6.94839 26.6963 6.94405 26.7062 6.89715C26.7393 6.73566 26.8201 6.71628 26.9045 6.70982C26.9136 6.70803 26.9231 6.70872 26.9326 6.70942C26.9576 6.71123 26.9834 6.71311 27.0073 6.67106C27.103 6.49859 27.2257 6.4108 27.3488 6.32263C27.424 6.2688 27.4994 6.21483 27.569 6.14137C27.6641 6.04315 27.7638 5.95926 27.863 5.87587C27.9399 5.81119 28.0165 5.74682 28.0903 5.67628C28.2334 5.53417 28.3803 5.39852 28.5308 5.33392C28.7309 5.24858 28.8934 5.04871 29.0514 4.85435C29.0848 4.81334 29.1179 4.77257 29.1512 4.73318C29.3568 4.48771 29.5514 4.14535 29.5624 3.63504C29.5624 3.58982 29.5697 3.53169 29.5844 3.49939C29.6655 3.35055 29.6653 3.166 29.6652 2.98573C29.6652 2.97822 29.6652 2.97073 29.6652 2.96324C29.6688 2.54982 29.5183 2.58212 29.3421 2.6338C29.0594 2.71777 28.7878 2.80175 28.5088 2.94386C27.8223 3.29268 27.1431 3.66088 26.464 4.05492C26.3375 4.12718 26.2132 4.21108 26.0888 4.29505C25.9352 4.39873 25.7815 4.50252 25.6233 4.58461C25.5593 4.6187 25.4964 4.63839 25.434 4.65794C25.3781 4.67543 25.3226 4.6928 25.2672 4.72026C25.1563 4.77346 25.0455 4.85708 24.9358 4.9398C24.8857 4.97762 24.8358 5.01525 24.7863 5.0497C24.5605 5.20473 24.3338 5.35976 24.1071 5.51479C23.8804 5.66982 23.6537 5.82485 23.4279 5.97988C23.3969 6.00112 23.3576 6.03481 23.3138 6.07235C23.1709 6.19473 22.9804 6.35803 22.8736 6.26411C22.7201 6.13202 22.6997 5.59814 22.6888 5.31082C22.6879 5.28901 22.6871 5.26863 22.6864 5.24995C22.6717 4.97218 22.6276 4.88821 22.4698 4.86883C22.1434 4.82561 21.8473 5.01847 21.5524 5.21047C21.5388 5.21933 21.5252 5.22819 21.5116 5.23703C21.2586 5.40396 21.0059 5.57038 20.7534 5.73673C20.097 6.16904 19.4414 6.60078 18.784 7.03926C18.6849 7.10386 18.5857 7.1297 18.4866 7.1297C18.4132 7.1297 18.3214 7.11678 18.281 7.0005C18.2367 6.87463 18.2873 6.75988 18.3329 6.65625C18.3365 6.6482 18.34 6.64022 18.3434 6.63231C18.4756 6.32224 18.6518 6.10262 18.8354 5.89591C19.5635 5.07856 20.3175 4.34282 21.0712 3.60747C21.3777 3.30836 21.6842 3.00931 21.9889 2.70486C22.2569 2.43355 22.4477 2.06535 22.5652 1.56796C22.5914 1.4606 22.5929 1.35095 22.5945 1.24174C22.5956 1.16697 22.5967 1.0924 22.6056 1.01889C22.679 0.418149 22.5762 0.140386 22.2422 0.030572C22.2045 0.0201041 22.1668 0.0228299 22.1297 0.0255139C22.0981 0.0277986 22.067 0.030053 22.0366 0.0241124C21.5901 -0.0772484 21.155 0.159371 20.7294 0.39081C20.6125 0.454359 20.4964 0.517517 20.3809 0.57318C19.8716 0.81856 19.3598 1.05953 18.8496 1.29974C18.742 1.35041 18.6344 1.40105 18.527 1.45169C18.2748 1.56964 18.0282 1.73644 17.7847 1.90112C17.7482 1.92582 17.7117 1.95048 17.6753 1.97492C17.1944 2.30112 16.7135 2.63218 16.2326 2.96323C15.7516 3.29429 15.2707 3.62535 14.7898 3.95156C14.151 4.38436 13.5233 4.84945 12.9139 5.39852C12.8471 5.45851 12.7792 5.51366 12.7113 5.56884C12.6038 5.65627 12.4961 5.74377 12.3926 5.85069C12.259 5.99254 12.1124 6.08353 11.9655 6.17471C11.8782 6.22887 11.7909 6.2831 11.7061 6.34808C11.4602 6.53264 11.2202 6.73265 10.9783 6.93431C10.9492 6.95851 10.9202 6.98274 10.8911 7.00696C10.7626 7.11678 10.6267 7.18783 10.4872 7.25243C10.4285 7.28473 10.3698 7.25243 10.3404 7.16845C10.3074 7.07802 10.3257 6.98759 10.3734 6.91007C10.4156 6.84191 10.4563 6.77064 10.4971 6.69935C10.5877 6.54092 10.6783 6.38239 10.7846 6.25765C10.9388 6.07032 11.0342 5.81193 11.0783 5.48895C11.1701 4.78485 10.9535 4.36498 10.5533 4.50709C10.496 4.52741 10.4387 4.54745 10.3815 4.56748C9.96537 4.71298 9.55065 4.858 9.14729 5.10784C8.95149 5.23027 8.75427 5.34266 8.5572 5.45497C8.30716 5.59746 8.05736 5.73981 7.811 5.90237C7.63651 6.01825 7.46176 6.13281 7.28705 6.24735C6.51708 6.75213 5.74764 7.25656 5.00259 7.87255C4.90588 7.95209 4.80917 8.03321 4.71238 8.11441C4.47113 8.31678 4.22935 8.5196 3.98569 8.69938C3.73651 8.8854 3.49767 9.09875 3.25854 9.31236C3.1489 9.4103 3.0392 9.50829 2.92841 9.60373C2.77858 9.7313 2.63228 9.87131 2.4861 10.0112C2.2992 10.1901 2.1125 10.3688 1.91886 10.521C1.3792 10.9473 0.879929 11.4835 0.384328 12.039ZM0.0636494 12.6766C0.0716728 12.6683 0.0794752 12.6602 0.0869657 12.6527C0.0832945 12.6398 0.0759523 12.6268 0.064939 12.6075C0.0172144 12.601 -0.00848342 12.6398 0.00252994 12.7366C0.0233383 12.7183 0.0441467 12.6968 0.0636494 12.6766Z" fill="#026BD6"/>
</svg>
